<?xml version="1.0" standalone="no"?>
<!DOCTYPE svg PUBLIC "-//W3C//DTD SVG 20010904//EN"
 "http://www.w3.org/TR/2001/REC-SVG-20010904/DTD/svg10.dtd">
<svg version="1.0" xmlns="http://www.w3.org/2000/svg"
 width="64" height="64" viewBox="0 0 900.000000 520.000000"
 preserveAspectRatio="xMidYMid meet">

<g transform="translate(0.000000,520.000000) scale(0.100000,-0.100000)"
fill="#000000" stroke="none">
<path d="M4355 4404 c-209 -45 -329 -164 -367 -364 -10 -53 -7 -256 8 -616 9
-197 -6 -254 -99 -374 -215 -280 -303 -437 -427 -755 -51 -132 -64 -185 -56
-240 l7 -44 37 19 c40 22 112 26 144 9 19 -10 20 -9 13 17 -25 102 -24 209 5
314 14 52 100 235 124 265 9 11 -6 -27 -33 -85 -114 -245 -130 -433 -46 -535
l25 -30 0 86 c0 158 41 313 126 479 53 104 101 155 176 188 32 13 58 28 58 33
0 5 -12 15 -28 23 -51 26 -66 54 -63 113 0 12 22 52 48 90 60 87 83 149 83
221 0 46 -5 65 -25 92 -53 72 -50 140 7 206 l31 35 -17 59 c-57 207 43 363
163 254 41 -36 54 -66 66 -142 l7 -43 66 3 67 3 6 62 c8 80 41 132 104 163 73
36 135 18 191 -55 53 -70 66 -153 40 -252 -13 -50 -13 -52 10 -74 35 -33 38
-53 19 -148 l-18 -87 75 -169 c137 -309 249 -585 268 -661 27 -106 40 -219 40
-358 l0 -119 36 -31 c31 -27 35 -37 36 -76 0 -72 20 -107 67 -121 62 -18 114
1 176 65 28 29 58 66 67 83 l18 30 -61 33 c-75 40 -159 49 -233 26 -53 -16
-50 -5 5 22 29 14 38 28 58 87 21 60 25 89 25 200 l1 131 -39 78 c-27 55 -58
99 -103 144 -46 46 -56 59 -33 46 56 -33 139 -130 173 -201 31 -66 32 -72 32
-198 -1 -107 -5 -142 -23 -199 -12 -37 -22 -72 -22 -77 0 -5 17 -9 38 -9 55 0
136 -26 171 -56 25 -20 37 -24 65 -19 31 6 37 13 51 54 39 114 30 215 -37 411
-49 143 -135 309 -236 454 -205 297 -267 403 -310 536 -34 103 -42 153 -52
340 -10 190 -35 306 -88 403 -54 100 -184 205 -305 247 -81 29 -218 35 -312
14z m391 -179 c14 -14 24 -33 22 -42 -4 -22 -64 -57 -83 -49 -22 8 -20 92 3
105 25 15 30 14 58 -14z m-2 -277 c14 -6 33 -23 42 -37 l17 -26 -29 26 c-16
15 -38 31 -49 37 -27 15 -13 15 19 0z m-462 -37 c47 -42 31 -46 -17 -5 -22 18
-34 34 -28 34 7 0 27 -13 45 -29z m711 -581 c53 -33 62 -48 53 -85 -5 -18 -13
-25 -29 -25 -37 0 -97 74 -97 119 0 29 18 26 73 -9z"/>
<path d="M4590 3777 c-34 -17 -50 -53 -50 -113 l0 -51 -52 18 c-64 22 -119 24
-181 5 -25 -7 -48 -11 -51 -8 -4 3 -6 20 -6 37 0 73 -30 115 -84 115 -62 0
-76 -114 -21 -185 l27 -37 -51 -50 c-90 -88 -84 -120 46 -245 56 -54 110 -97
130 -104 58 -19 152 -7 219 27 249 129 275 151 282 241 6 67 -9 85 -90 114
l-59 22 30 18 c16 10 32 27 36 39 20 62 -5 138 -52 159 -30 14 -42 14 -73 -2z
m-382 -58 c2 -23 2 -23 -13 -5 -18 24 -20 39 -2 34 6 -3 13 -15 15 -29z m468
16 c11 -29 -2 -37 -19 -11 -15 23 -16 26 -2 26 9 0 18 -7 21 -15z m-202 -146
c5 -5 7 -12 3 -15 -9 -10 -68 17 -61 28 6 9 43 2 58 -13z m-177 -6 c-9 -9 -19
-14 -23 -11 -10 10 6 28 24 28 15 0 15 -1 -1 -17z m448 -134 c-4 -6 -38 -30
-75 -54 -243 -156 -420 -176 -547 -61 -26 24 -45 47 -41 51 3 3 33 -12 66 -34
76 -53 142 -68 222 -53 56 10 114 36 286 127 65 35 101 45 89 24z"/>
<path d="M3455 1959 c-25 -23 -67 -71 -94 -108 -57 -77 -96 -102 -201 -129
-155 -39 -163 -50 -147 -202 8 -77 7 -133 -1 -210 -17 -149 -16 -157 16 -190
32 -32 92 -51 307 -100 77 -18 221 -59 320 -92 99 -33 203 -62 232 -65 67 -7
117 16 206 99 l67 63 0 73 c0 90 -13 121 -94 231 -35 47 -109 157 -165 245
-146 227 -257 373 -310 408 -45 30 -86 23 -136 -23z"/>
<path d="M5039 1911 c-23 -18 -24 -26 -31 -207 -8 -225 -13 -281 -40 -439 -36
-215 -11 -324 86 -374 42 -22 63 -25 140 -25 114 -1 151 15 266 113 101 86
214 164 367 254 137 82 173 116 173 164 0 39 -13 54 -148 165 -97 80 -118 117
-124 216 -6 82 -24 112 -69 112 -21 0 -35 -11 -62 -48 -39 -55 -109 -116 -150
-131 -48 -19 -128 -13 -172 12 -50 28 -75 76 -75 143 0 60 -5 64 -85 64 -37 0
-60 -6 -76 -19z"/>
<path d="M3760 1896 c0 -2 33 -54 73 -115 39 -60 105 -162 145 -226 60 -94 78
-115 97 -115 34 0 65 37 65 77 0 66 -14 80 -292 311 -49 40 -88 71 -88 68z"/>
<path d="M4899 1413 c-25 -30 -156 -110 -232 -142 -102 -42 -238 -64 -359 -59
l-97 5 5 -61 c11 -130 11 -129 52 -123 88 14 459 19 531 8 40 -6 76 -10 78 -8
3 4 53 366 53 389 0 14 -17 9 -31 -9z"/>
</g>
</svg>
